<svg xmlns="http://www.w3.org/2000/svg" viewBox="168.5 168.5 302.7 302.7" fill="currentColor" role="img" aria-label="Taikun Atlas mark">
  <defs><clipPath clipPathUnits="userSpaceOnUse" id="tkc"><path clip-rule="evenodd" d="m 3451.39,2273.83 -99.65,-34.31 z m -2102.78,156.88 v -262.12 l 157.02,-54.07 60.08,-145.06 -72.78,-149.26 327.27,-327.27 149.26,72.78 145.06,-60.09 54.09,-157.01 h 462.77 l 54.09,157.01 145.07,60.09 149.25,-72.78 327.27,327.27 -72.77,149.26 60.07,145.06 157.03,54.07 v 105.24 l -99.65,-34.32 -131.63,-45.33 c -31.53,-76.23 -62.94,-152.52 -94.7,-228.65 l 61.04,-125.02 -226.95,-226.96 -125.05,60.98 c -76.15,-31.75 -152.42,-63.22 -228.69,-94.71 l -45.28,-131.56 h -320.96 l -45.29,131.56 c -76.26,31.49 -152.53,62.96 -228.69,94.71 l -125.05,-60.98 -226.94,226.96 3.42,7.01 57.61,118.01 c -31.75,76.13 -63.16,152.42 -94.7,228.65 l -131.63,45.34 v 129.76 h 214.85 v -135.37 h 99.65 v 311.52 h -99.65 v -114.72 h -214.85 z m 2102.78,-61.43 v 262.13 l -157.03,54.07 -60.07,145.06 72.77,149.26 -327.27,327.27 -149.25,-72.78 -145.07,60.09 -54.09,157.01 h -462.77 l -54.09,-157.01 -145.06,-60.09 -149.26,72.78 -327.27,-327.27 72.78,-149.26 -60.08,-145.06 -157.02,-54.07 v -105.25 l 99.64,34.32 131.63,45.34 c 31.54,76.23 62.95,152.51 94.7,228.65 l -61.03,125.02 226.94,226.96 125.05,-60.99 c 76.16,31.76 152.43,63.23 228.69,94.72 l 45.29,131.56 h 320.96 l 45.28,-131.56 c 76.27,-31.49 152.54,-62.96 228.69,-94.72 l 125.05,60.99 226.95,-226.96 -61.04,-125.02 c 31.76,-76.14 63.17,-152.42 94.7,-228.65 l 131.63,-45.34 v -129.77 h -202.9 v 119.88 h -99.65 v -320.82 h 99.65 v 139.51 h 202.9 z m -633.21,464.28 V 1946.8 h 99.65 v 886.76 z m -231.02,-61.97 v -469.52 h 99.65 v 469.52 z m -231.02,264.9 V 1763.5 h 99.66 V 3036.49 Z M 2125.13,2478.3 v -467.46 h 99.65 v 467.46 z m -231.01,351.13 v -879.52 h 99.65 v 879.52 z"/></clipPath></defs>
  <path d="m 3451.39,2273.83 -99.65,-34.31 z m -2102.78,156.88 v -262.12 l 157.02,-54.07 60.08,-145.06 -72.78,-149.26 327.27,-327.27 149.26,72.78 145.06,-60.09 54.09,-157.01 h 462.77 l 54.09,157.01 145.07,60.09 149.25,-72.78 327.27,327.27 -72.77,149.26 60.07,145.06 157.03,54.07 v 105.24 l -99.65,-34.32 -131.63,-45.33 c -31.53,-76.23 -62.94,-152.52 -94.7,-228.65 l 61.04,-125.02 -226.95,-226.96 -125.05,60.98 c -76.15,-31.75 -152.42,-63.22 -228.69,-94.71 l -45.28,-131.56 h -320.96 l -45.29,131.56 c -76.26,31.49 -152.53,62.96 -228.69,94.71 l -125.05,-60.98 -226.94,226.96 3.42,7.01 57.61,118.01 c -31.75,76.13 -63.16,152.42 -94.7,228.65 l -131.63,45.34 v 129.76 h 214.85 v -135.37 h 99.65 v 311.52 h -99.65 v -114.72 h -214.85 z m 2102.78,-61.43 v 262.13 l -157.03,54.07 -60.07,145.06 72.77,149.26 -327.27,327.27 -149.25,-72.78 -145.07,60.09 -54.09,157.01 h -462.77 l -54.09,-157.01 -145.06,-60.09 -149.26,72.78 -327.27,-327.27 72.78,-149.26 -60.08,-145.06 -157.02,-54.07 v -105.25 l 99.64,34.32 131.63,45.34 c 31.54,76.23 62.95,152.51 94.7,228.65 l -61.03,125.02 226.94,226.96 125.05,-60.99 c 76.16,31.76 152.43,63.23 228.69,94.72 l 45.29,131.56 h 320.96 l 45.28,-131.56 c 76.27,-31.49 152.54,-62.96 228.69,-94.72 l 125.05,60.99 226.95,-226.96 -61.04,-125.02 c 31.76,-76.14 63.17,-152.42 94.7,-228.65 l 131.63,-45.34 v -129.77 h -202.9 v 119.88 h -99.65 v -320.82 h 99.65 v 139.51 h 202.9 z m -633.21,464.28 V 1946.8 h 99.65 v 886.76 z m -231.02,-61.97 v -469.52 h 99.65 v 469.52 z m -231.02,264.9 V 1763.5 h 99.66 V 3036.49 Z M 2125.13,2478.3 v -467.46 h 99.65 v 467.46 z m -231.01,351.13 v -879.52 h 99.65 v 879.52 h -99.65" transform="matrix(0.13333333,0,0,-0.13333333,0,640)" clip-path="url(#tkc)"/>
</svg>